<?xml version="1.0" encoding="UTF-8"?>
<!DOCTYPE svg PUBLIC "-//W3C//DTD SVG 1.1//EN" "http://www.w3.org/Graphics/SVG/1.1/DTD/svg11.dtd">
<svg xmlns="http://www.w3.org/2000/svg" version="1.1" width="1725px" height="375px" style="shape-rendering:geometricPrecision; text-rendering:geometricPrecision; image-rendering:optimizeQuality; fill-rule:evenodd; clip-rule:evenodd" xmlns:xlink="http://www.w3.org/1999/xlink">
<g><path style="opacity:1" fill="#010101" d="M -0.5,-0.5 C 574.5,-0.5 1149.5,-0.5 1724.5,-0.5C 1724.5,124.5 1724.5,249.5 1724.5,374.5C 1149.5,374.5 574.5,374.5 -0.5,374.5C -0.5,249.5 -0.5,124.5 -0.5,-0.5 Z"/></g>
<g><path style="opacity:1" fill="#8d1f2a" d="M 527.5,42.5 C 528.263,43.2679 529.263,43.7679 530.5,44C 526.833,44.3333 523.167,44.6667 519.5,45C 527.5,45.3333 535.5,45.6667 543.5,46C 537.5,46.3333 531.5,46.6667 525.5,47C 535.517,47.7301 545.517,47.5634 555.5,46.5C 566.306,46.8411 576.972,48.1744 587.5,50.5C 578.257,52.973 569.09,52.6396 560,49.5C 546.587,49.517 533.087,49.6837 519.5,50C 516.635,50.1829 513.969,50.6829 511.5,51.5C 503.156,51.6119 494.822,51.9452 486.5,52.5C 483.903,52.2792 483.903,51.7792 486.5,51C 484.559,50.2571 482.726,50.4238 481,51.5C 480.5,51 480,50.5 479.5,50C 483.25,49.7401 486.916,49.0734 490.5,48C 489.5,47.6667 488.5,47.3333 487.5,47C 491.114,46.0551 494.781,45.3884 498.5,45C 499.056,44.6174 499.389,44.1174 499.5,43.5C 508.826,43.0005 518.159,42.6672 527.5,42.5 Z"/></g>
<g><path style="opacity:1" fill="#7c2127" d="M 499.5,43.5 C 499.389,44.1174 499.056,44.6174 498.5,45C 494.781,45.3884 491.114,46.0551 487.5,47C 488.5,47.3333 489.5,47.6667 490.5,48C 486.916,49.0734 483.25,49.7401 479.5,50C 480,50.5 480.5,51 481,51.5C 482.726,50.4238 484.559,50.2571 486.5,51C 483.903,51.7792 483.903,52.2792 486.5,52.5C 462.897,54.909 439.23,57.909 415.5,61.5C 416.609,60.71 417.942,60.21 419.5,60C 418.167,59.6667 416.833,59.3333 415.5,59C 419.668,58.3318 423.668,57.1652 427.5,55.5C 429.228,55.5901 430.894,55.9234 432.5,56.5C 437.965,54.7005 442.965,52.0339 447.5,48.5C 464.811,46.5689 482.144,44.9023 499.5,43.5 Z"/></g>
<g><path style="opacity:1" fill="#a21c2c" d="M 527.5,42.5 C 548.119,41.7746 568.452,43.1079 588.5,46.5C 584.785,46.6797 581.118,46.3464 577.5,45.5C 574.937,45.737 574.937,46.237 577.5,47C 588.858,49.0043 600.191,51.3376 611.5,54C 616.298,55.3164 620.631,57.4831 624.5,60.5C 622.902,60.6097 621.235,60.943 619.5,61.5C 619.323,58.9218 618.157,58.9218 616,61.5C 611.807,59.6472 607.307,58.4805 602.5,58C 598.911,57.7931 595.411,57.2931 592,56.5C 590.173,57.6616 588.506,57.3282 587,55.5C 585.584,56.5733 584.25,56.5733 583,55.5C 582.005,56.0659 581.172,56.7326 580.5,57.5C 557.865,52.0496 534.865,50.0496 511.5,51.5C 513.969,50.6829 516.635,50.1829 519.5,50C 533.087,49.6837 546.587,49.517 560,49.5C 569.09,52.6396 578.257,52.973 587.5,50.5C 576.972,48.1744 566.306,46.8411 555.5,46.5C 545.517,47.5634 535.517,47.7301 525.5,47C 531.5,46.6667 537.5,46.3333 543.5,46C 535.5,45.6667 527.5,45.3333 519.5,45C 523.167,44.6667 526.833,44.3333 530.5,44C 529.263,43.7679 528.263,43.2679 527.5,42.5 Z"/></g>
<g><path style="opacity:1" fill="#6b2124" d="M 447.5,48.5 C 442.965,52.0339 437.965,54.7005 432.5,56.5C 430.894,55.9234 429.228,55.5901 427.5,55.5C 423.668,57.1652 419.668,58.3318 415.5,59C 416.833,59.3333 418.167,59.6667 419.5,60C 417.942,60.21 416.609,60.71 415.5,61.5C 402.995,64.0307 390.328,66.3641 377.5,68.5C 377.494,67.5826 378.494,67.0826 380.5,67C 378.913,66.1376 377.246,65.4709 375.5,65C 377.167,64.6667 378.833,64.3333 380.5,64C 379.833,63.6667 379.167,63.3333 378.5,63C 385.517,61.9147 392.517,60.748 399.5,59.5C 398.271,58.7189 396.938,58.2189 395.5,58C 398.191,57.8442 400.524,57.0109 402.5,55.5C 417.457,52.9219 432.457,50.5886 447.5,48.5 Z"/></g>
<g><path style="opacity:1" fill="#b2172d" d="M 588.5,46.5 C 604.059,47.8527 618.392,52.6861 631.5,61C 633.706,63.0367 635.706,65.2034 637.5,67.5C 635.836,68.9488 635.002,70.9488 635,73.5C 633.956,72.3774 633.29,71.0441 633,69.5C 630,72.1667 627,72.1667 624,69.5C 623.692,70.3081 623.192,70.9747 622.5,71.5C 616.699,69.431 611.032,67.0976 605.5,64.5C 604.232,65.4279 602.899,65.5946 601.5,65C 600.274,63.3651 598.941,61.8651 597.5,60.5C 596.452,61.548 595.452,62.548 594.5,63.5C 589.859,61.5149 585.193,59.5149 580.5,57.5C 581.172,56.7326 582.005,56.0659 583,55.5C 584.25,56.5733 585.584,56.5733 587,55.5C 588.506,57.3282 590.173,57.6616 592,56.5C 595.411,57.2931 598.911,57.7931 602.5,58C 607.307,58.4805 611.807,59.6472 616,61.5C 618.157,58.9218 619.323,58.9218 619.5,61.5C 621.235,60.943 622.902,60.6097 624.5,60.5C 620.631,57.4831 616.298,55.3164 611.5,54C 600.191,51.3376 588.858,49.0043 577.5,47C 574.937,46.237 574.937,45.737 577.5,45.5C 581.118,46.3464 584.785,46.6797 588.5,46.5 Z"/></g>
<g><path style="opacity:1" fill="#591f20" d="M 402.5,55.5 C 400.524,57.0109 398.191,57.8442 395.5,58C 396.938,58.2189 398.271,58.7189 399.5,59.5C 392.517,60.748 385.517,61.9147 378.5,63C 379.167,63.3333 379.833,63.6667 380.5,64C 378.833,64.3333 377.167,64.6667 375.5,65C 377.246,65.4709 378.913,66.1376 380.5,67C 378.494,67.0826 377.494,67.5826 377.5,68.5C 360.678,72.4755 343.678,76.1422 326.5,79.5C 326.494,78.5826 327.494,78.0826 329.5,78C 327.519,77.3946 327.185,76.3946 328.5,75C 331.01,74.6237 333.343,73.7904 335.5,72.5C 334.624,71.7492 333.624,71.2492 332.5,71C 336.356,70.5959 340.023,70.9292 343.5,72C 341.249,71.2525 339.916,69.7525 339.5,67.5C 360.406,63.0236 381.406,59.0236 402.5,55.5 Z"/></g>
<g><path style="opacity:1" fill="#451a1a" d="M 339.5,67.5 C 339.916,69.7525 341.249,71.2525 343.5,72C 340.023,70.9292 336.356,70.5959 332.5,71C 333.624,71.2492 334.624,71.7492 335.5,72.5C 333.343,73.7904 331.01,74.6237 328.5,75C 327.185,76.3946 327.519,77.3946 329.5,78C 327.494,78.0826 326.494,78.5826 326.5,79.5C 309.055,84.2775 291.388,88.6108 273.5,92.5C 269.764,92.3399 269.764,91.5066 273.5,90C 273,89.8333 272.5,89.6667 272,89.5C 269.547,90.4929 267.047,90.6595 264.5,90C 266.004,88.2122 267.671,87.7122 269.5,88.5C 271.115,87.846 272.782,87.346 274.5,87C 273.5,86.6667 272.5,86.3333 271.5,86C 273.167,85.6667 274.833,85.3333 276.5,85C 275.944,84.6174 275.611,84.1174 275.5,83.5C 296.669,77.541 318.003,72.2077 339.5,67.5 Z"/></g>
<g><path style="opacity:1" fill="#20090a" d="M 207.5,103.5 C 205.837,105.533 203.837,107.366 201.5,109C 203.093,109.949 204.426,111.115 205.5,112.5C 197.449,116.024 189.115,118.691 180.5,120.5C 181.149,118.523 181.149,116.69 180.5,115C 181.272,113.779 182.272,112.779 183.5,112C 191.647,109.419 199.647,106.586 207.5,103.5 Z"/></g>
<g><path style="opacity:1" fill="#2d1211" d="M 275.5,83.5 C 275.611,84.1174 275.944,84.6174 276.5,85C 274.833,85.3333 273.167,85.6667 271.5,86C 272.5,86.3333 273.5,86.6667 274.5,87C 272.782,87.346 271.115,87.846 269.5,88.5C 267.671,87.7122 266.004,88.2122 264.5,90C 267.047,90.6595 269.547,90.4929 272,89.5C 272.5,89.6667 273,89.8333 273.5,90C 269.764,91.5066 269.764,92.3399 273.5,92.5C 250.921,99.1485 228.255,105.815 205.5,112.5C 204.426,111.115 203.093,109.949 201.5,109C 203.837,107.366 205.837,105.533 207.5,103.5C 229.978,96.265 252.645,89.5983 275.5,83.5 Z"/></g>
<g><path style="opacity:1" fill="#c1132f" d="M 637.5,67.5 C 642.834,77.7664 642.667,88.0997 637,98.5C 626.5,113 614,125.5 599.5,136C 582.501,147.837 564.835,158.67 546.5,168.5C 546.899,166.102 546.899,163.602 546.5,161C 541.946,159.259 537.279,157.926 532.5,157C 555.89,144.621 576.723,128.787 595,109.5C 600.391,103.432 604.058,96.4316 606,88.5C 607.454,77.6815 603.621,69.3482 594.5,63.5C 595.452,62.548 596.452,61.548 597.5,60.5C 598.941,61.8651 600.274,63.3651 601.5,65C 602.899,65.5946 604.232,65.4279 605.5,64.5C 611.032,67.0976 616.699,69.431 622.5,71.5C 623.192,70.9747 623.692,70.3081 624,69.5C 627,72.1667 630,72.1667 633,69.5C 633.29,71.0441 633.956,72.3774 635,73.5C 635.002,70.9488 635.836,68.9488 637.5,67.5 Z"/></g>
<g><path style="opacity:1" fill="#fcfcfc" d="M 1079.5,123.5 C 1079.17,137.183 1079.5,150.85 1080.5,164.5C 1081.11,164.376 1081.44,164.043 1081.5,163.5C 1097.46,156.934 1112.46,158.767 1126.5,169C 1140.31,183.35 1144.47,200.184 1139,219.5C 1132.56,240.981 1118.06,251.648 1095.5,251.5C 1088.31,251.324 1081.64,249.324 1075.5,245.5C 1071.65,250.844 1066.32,252.844 1059.5,251.5C 1059.5,210.167 1059.5,168.833 1059.5,127.5C 1066.24,126.552 1072.9,125.219 1079.5,123.5 Z"/></g>
<g><path style="opacity:1" fill="#615f60" d="M 1079.5,123.5 C 1080.17,136.833 1080.83,150.167 1081.5,163.5C 1081.44,164.043 1081.11,164.376 1080.5,164.5C 1079.5,150.85 1079.17,137.183 1079.5,123.5 Z"/></g>
<g><path style="opacity:1" fill="#fdfdfd" d="M 291.5,125.5 C 300.315,124.971 308.981,125.804 317.5,128C 317.957,128.414 318.291,128.914 318.5,129.5C 316.428,134.05 314.762,138.717 313.5,143.5C 297.398,138.594 289.065,144.594 288.5,161.5C 294.5,161.5 300.5,161.5 306.5,161.5C 306.5,167.167 306.5,172.833 306.5,178.5C 300.5,178.5 294.5,178.5 288.5,178.5C 288.5,202.167 288.5,225.833 288.5,249.5C 281.833,249.5 275.167,249.5 268.5,249.5C 268.5,225.833 268.5,202.167 268.5,178.5C 264.167,178.5 259.833,178.5 255.5,178.5C 255.5,172.833 255.5,167.167 255.5,161.5C 259.833,161.5 264.167,161.5 268.5,161.5C 268.188,144.19 275.855,132.19 291.5,125.5 Z"/></g>
<g><path style="opacity:1" fill="#fdfefe" d="M 351.5,154.5 C 350.532,156.607 350.198,158.941 350.5,161.5C 356.833,161.5 363.167,161.5 369.5,161.5C 369.5,167.167 369.5,172.833 369.5,178.5C 363.5,178.5 357.5,178.5 351.5,178.5C 351.5,202.167 351.5,225.833 351.5,249.5C 344.5,249.5 337.5,249.5 330.5,249.5C 330.5,225.833 330.5,202.167 330.5,178.5C 326.167,178.5 321.833,178.5 317.5,178.5C 317.5,172.833 317.5,167.167 317.5,161.5C 321.833,161.5 326.167,161.5 330.5,161.5C 334.133,130.499 351.133,119.166 381.5,127.5C 379.8,132.766 377.8,137.932 375.5,143C 370.878,142.348 366.211,142.015 361.5,142C 355.896,144.386 352.563,148.553 351.5,154.5 Z"/></g>
<g><path style="opacity:1" fill="#fcfcfc" d="M 122.5,129.5 C 129.5,129.5 136.5,129.5 143.5,129.5C 143.5,156.833 143.5,184.167 143.5,211.5C 143.601,233.552 132.934,246.719 111.5,251C 100.213,252.908 89.5462,251.242 79.5,246C 71.1146,240.066 66.7812,231.899 66.5,221.5C 72.8421,221.334 79.1754,221.5 85.5,222C 88.9122,229.044 94.5789,232.544 102.5,232.5C 114.353,231.816 120.853,225.482 122,213.5C 122.5,185.502 122.667,157.502 122.5,129.5 Z"/></g>
<g><path style="opacity:1" fill="#fefefe" d="M 878.5,129.5 C 885.5,129.5 892.5,129.5 899.5,129.5C 899.168,163.337 899.502,197.004 900.5,230.5C 918.5,230.5 936.5,230.5 954.5,230.5C 954.5,236.833 954.5,243.167 954.5,249.5C 929.167,249.5 903.833,249.5 878.5,249.5C 878.5,209.5 878.5,169.5 878.5,129.5 Z"/></g>
<g><path style="opacity:1" fill="#6a6869" d="M 122.5,129.5 C 129.648,128.508 136.981,128.175 144.5,128.5C 144.831,156.338 144.498,184.005 143.5,211.5C 143.5,184.167 143.5,156.833 143.5,129.5C 136.5,129.5 129.5,129.5 122.5,129.5 Z"/></g>
<g><path style="opacity:1" fill="#686868" d="M 878.5,129.5 C 885.648,128.508 892.981,128.175 900.5,128.5C 900.5,162.5 900.5,196.5 900.5,230.5C 899.502,197.004 899.168,163.337 899.5,129.5C 892.5,129.5 885.5,129.5 878.5,129.5 Z"/></g>
<g><path style="opacity:1" fill="#fbfbfb" d="M 198.5,159.5 C 223.837,157.376 240.004,168.376 247,192.5C 247.559,198.913 247.059,205.247 245.5,211.5C 224.5,211.5 203.5,211.5 182.5,211.5C 184.061,226.391 192.395,234.057 207.5,234.5C 215.186,234.163 222.186,231.83 228.5,227.5C 231.792,231.912 234.459,236.745 236.5,242C 236.355,242.772 236.022,243.439 235.5,244C 219.081,252.095 202.081,253.429 184.5,248C 167.643,239.47 159.643,225.637 160.5,206.5C 161.518,181.171 174.184,165.504 198.5,159.5 Z"/></g>
<g><path style="opacity:1" fill="#fbfbfb" d="M 418.5,159.5 C 454.669,158.332 471.335,175.665 468.5,211.5C 447.167,211.5 425.833,211.5 404.5,211.5C 406.2,226.859 414.866,234.526 430.5,234.5C 438.362,234.272 445.196,231.605 451,226.5C 453.636,231.606 456.136,236.772 458.5,242C 455.401,245.616 451.401,247.949 446.5,249C 431.426,253.173 416.76,252.173 402.5,246C 388.845,236.772 382.178,223.772 382.5,207C 382.999,182.347 394.999,166.513 418.5,159.5 Z"/></g>
<g><path style="opacity:1" fill="#fdfdfd" d="M 522.5,159.5 C 528.535,159.537 534.535,160.037 540.5,161C 542.619,161.098 544.286,161.931 545.5,163.5C 542.755,169.325 539.755,174.992 536.5,180.5C 522.338,173.831 512.504,177.831 507,192.5C 506.5,211.497 506.333,230.497 506.5,249.5C 499.5,249.5 492.5,249.5 485.5,249.5C 485.5,220.167 485.5,190.833 485.5,161.5C 492.5,161.5 499.5,161.5 506.5,161.5C 506.337,163.857 506.503,166.19 507,168.5C 511.569,164.305 516.735,161.305 522.5,159.5 Z"/></g>
<g><path style="opacity:1" fill="#fafafa" d="M 575.5,159.5 C 585.871,158.606 595.871,160.106 605.5,164C 607.18,164.347 608.18,165.347 608.5,167C 607.173,172.149 605.173,176.983 602.5,181.5C 595.189,176.77 587.189,175.27 578.5,177C 572.271,181.171 571.938,185.837 577.5,191C 586.833,195.667 596.167,200.333 605.5,205C 616.497,216.805 617.33,229.305 608,242.5C 596.437,250.596 583.603,253.43 569.5,251C 565.392,249.973 561.392,248.64 557.5,247C 555.445,246.313 553.779,245.146 552.5,243.5C 555.097,238.209 557.597,232.876 560,227.5C 568.858,234.811 578.691,236.645 589.5,233C 594.531,225.299 592.864,219.299 584.5,215C 576.888,211.861 569.554,208.194 562.5,204C 551.895,194.505 549.728,183.339 556,170.5C 561.341,164.584 567.841,160.918 575.5,159.5 Z"/></g>
<g><path style="opacity:1" fill="#fbfbfb" d="M 661.5,159.5 C 687.125,157.534 702.958,168.867 709,193.5C 713.012,213.316 707.845,230.149 693.5,244C 682.347,250.311 670.347,252.644 657.5,251C 639.884,246.648 629.384,235.482 626,217.5C 622.378,200.876 625.711,185.876 636,172.5C 643.173,165.331 651.673,160.998 661.5,159.5 Z"/></g>
<g><path style="opacity:1" fill="#fdfdfd" d="M 803.5,187.5 C 803.5,208.167 803.5,228.833 803.5,249.5C 796.833,249.5 790.167,249.5 783.5,249.5C 783.667,230.497 783.5,211.497 783,192.5C 782.485,184.99 778.652,180.156 771.5,178C 761.506,175.509 753.506,178.342 747.5,186.5C 746.503,207.327 746.169,228.327 746.5,249.5C 739.833,249.5 733.167,249.5 726.5,249.5C 726.5,220.167 726.5,190.833 726.5,161.5C 731.511,161.334 736.511,161.501 741.5,162C 742.708,164.25 744.041,166.417 745.5,168.5C 761.658,156.681 777.991,156.514 794.5,168C 799.8,173.433 802.8,179.933 803.5,187.5 Z"/></g>
<g><path style="opacity:1" fill="#fafafa" d="M 988.5,159.5 C 999.372,158.863 1010.04,160.03 1020.5,163C 1029.72,167.257 1035.22,174.423 1037,184.5C 1038.1,200.145 1038.77,215.812 1039,231.5C 1039.83,236.819 1041.99,241.485 1045.5,245.5C 1041.24,251.202 1035.57,253.035 1028.5,251C 1024.61,248.778 1021.78,245.612 1020,241.5C 1010.46,250.014 999.289,253.181 986.5,251C 969.676,246.153 962.509,234.987 965,217.5C 969.821,202.811 979.987,194.311 995.5,192C 1002.55,191.203 1009.55,191.37 1016.5,192.5C 1018.04,186.16 1015.71,181.66 1009.5,179C 999.32,176.658 989.32,177.158 979.5,180.5C 976.749,175.494 975.249,170.16 975,164.5C 979.482,162.518 983.982,160.852 988.5,159.5 Z"/></g>
<g><path style="opacity:1" fill="#3a3a3a" d="M 351.5,154.5 C 351.5,156.5 351.5,158.5 351.5,160.5C 357.69,160.177 363.69,160.51 369.5,161.5C 363.167,161.5 356.833,161.5 350.5,161.5C 350.198,158.941 350.532,156.607 351.5,154.5 Z"/></g>
<g><path style="opacity:1" fill="#040404" d="M 662.5,176.5 C 676.862,175.034 685.362,181.367 688,195.5C 689.535,205.931 688.202,215.931 684,225.5C 676.609,234.887 667.442,237.054 656.5,232C 651.14,227.781 647.973,222.281 647,215.5C 645.92,206.674 646.587,198.007 649,189.5C 652.101,183.563 656.601,179.23 662.5,176.5 Z"/></g>
<g><path style="opacity:1" fill="#040404" d="M 225.5,193.5 C 218.867,194.83 211.867,195.497 204.5,195.5C 197.325,195.5 190.325,195.166 183.5,194.5C 186.123,183.04 193.29,177.373 205,177.5C 216.401,177.075 223.234,182.408 225.5,193.5 Z"/></g>
<g><path style="opacity:1" fill="#030303" d="M 447.5,192.5 C 447.5,193.5 447.5,194.5 447.5,195.5C 433.5,195.5 419.5,195.5 405.5,195.5C 409.118,180.845 418.451,175.012 433.5,178C 441.649,179.461 446.316,184.294 447.5,192.5 Z"/></g>
<g><path style="opacity:1" fill="#050505" d="M 1086.5,177.5 C 1110.64,175.47 1121.47,186.47 1119,210.5C 1118.78,222.035 1113.28,229.535 1102.5,233C 1096.83,233.667 1091.17,233.667 1085.5,233C 1083.39,231.859 1081.56,230.359 1080,228.5C 1079.33,213.167 1079.33,197.833 1080,182.5C 1081.97,180.45 1084.13,178.783 1086.5,177.5 Z"/></g>
<g><path style="opacity:1" fill="#ae1833" d="M 519.5,179.5 C 520.873,179.343 522.207,179.51 523.5,180C 520.942,181.626 518.275,182.626 515.5,183C 516.731,181.595 518.064,180.429 519.5,179.5 Z"/></g>
<g><path style="opacity:1" fill="#c21230" d="M 481.5,181.5 C 482.814,183.915 483.481,186.748 483.5,190C 483.167,192.833 482.833,195.667 482.5,198.5C 478.951,200.238 475.284,201.571 471.5,202.5C 471.328,197.467 471.161,192.467 471,187.5C 474.507,185.398 478.007,183.398 481.5,181.5 Z"/></g>
<g><path style="opacity:1" fill="#313131" d="M 225.5,193.5 C 226.404,194.209 226.737,195.209 226.5,196.5C 211.818,196.833 197.152,196.499 182.5,195.5C 182.624,194.893 182.957,194.56 183.5,194.5C 190.325,195.166 197.325,195.5 204.5,195.5C 211.867,195.497 218.867,194.83 225.5,193.5 Z"/></g>
<g><path style="opacity:1" fill="#2d2d2d" d="M 447.5,192.5 C 448.434,193.568 448.768,194.901 448.5,196.5C 433.99,196.829 419.657,196.496 405.5,195.5C 419.5,195.5 433.5,195.5 447.5,195.5C 447.5,194.5 447.5,193.5 447.5,192.5 Z"/></g>
<g><path style="opacity:1" fill="#050505" d="M 998.5,207.5 C 1004.76,207.19 1010.92,207.524 1017,208.5C 1020.66,228.508 1012.49,237.008 992.5,234C 985.134,228.973 983.634,222.473 988,214.5C 990.998,211.262 994.498,208.929 998.5,207.5 Z"/></g>
<g><path style="opacity:1" fill="#842029" d="M 406.5,214.5 C 418.66,213.34 430.993,213.173 443.5,214C 442.756,215.039 441.756,215.539 440.5,215.5C 429.346,214.505 418.012,214.172 406.5,214.5 Z"/></g>
<g><path style="opacity:1" fill="#c1132f" d="M 406.5,214.5 C 418.012,214.172 429.346,214.505 440.5,215.5C 431.4,218.923 422.233,222.256 413,225.5C 409.316,222.809 407.149,219.142 406.5,214.5 Z"/></g>
<g><path style="opacity:1" fill="#c11330" d="M 379.5,220.5 C 380.5,220.5 381.5,220.5 382.5,220.5C 383.333,225.164 385,229.497 387.5,233.5C 376.399,237.399 365.233,241.066 354,244.5C 353.501,239.177 353.334,233.844 353.5,228.5C 362.347,226.126 371.014,223.46 379.5,220.5 Z"/></g>
<g><path style="opacity:1" fill="#7a7a7a" d="M 747.5,186.5 C 747.5,207.833 747.5,229.167 747.5,250.5C 740.313,250.825 733.313,250.491 726.5,249.5C 733.167,249.5 739.833,249.5 746.5,249.5C 746.169,228.327 746.503,207.327 747.5,186.5 Z"/></g>
<g><path style="opacity:1" fill="#787878" d="M 803.5,187.5 C 804.497,208.327 804.831,229.327 804.5,250.5C 797.313,250.825 790.313,250.491 783.5,249.5C 790.167,249.5 796.833,249.5 803.5,249.5C 803.5,228.833 803.5,208.167 803.5,187.5 Z"/></g>
<g><path style="opacity:1" fill="#c1132f" d="M 325.5,236.5 C 326.5,236.5 327.5,236.5 328.5,236.5C 328.5,241.833 328.5,247.167 328.5,252.5C 297.001,260.457 265.334,267.957 233.5,275C 229.984,275.499 226.484,275.333 223,274.5C 220.621,274.482 218.454,275.149 216.5,276.5C 216.167,276 215.833,275.5 215.5,275C 216.729,270.935 218.062,266.935 219.5,263C 235.557,259.653 251.557,255.986 267.5,252C 275.159,251.5 282.826,251.334 290.5,251.5C 290.261,249.533 290.594,247.699 291.5,246C 303.056,243.115 314.389,239.948 325.5,236.5 Z"/></g>
<g><path style="opacity:1" fill="#5b5a5a" d="M 460.5,264.5 C 463.625,263.521 466.958,263.187 470.5,263.5C 470.737,264.791 470.404,265.791 469.5,266.5C 467.012,264.612 464.012,263.945 460.5,264.5 Z"/></g>
<g><path style="opacity:1" fill="#f9f9f9" d="M 522.5,263.5 C 527.248,263.275 531.915,263.775 536.5,265C 535.76,266.785 535.093,268.618 534.5,270.5C 532.925,271.446 531.258,271.446 529.5,270.5C 526.013,271.469 524.68,273.802 525.5,277.5C 529.182,277.665 532.848,277.499 536.5,277C 538.254,263.787 545.254,259.954 557.5,265.5C 556.907,267.382 556.24,269.215 555.5,271C 549.346,268.79 546.346,270.956 546.5,277.5C 548.5,277.5 550.5,277.5 552.5,277.5C 553.152,283.396 550.485,285.73 544.5,284.5C 542.319,293.741 540.652,303.074 539.5,312.5C 536.167,312.5 532.833,312.5 529.5,312.5C 531.812,303.295 533.479,293.962 534.5,284.5C 530.774,284.177 527.107,284.511 523.5,285.5C 520.933,294.337 519.266,303.337 518.5,312.5C 515.167,312.5 511.833,312.5 508.5,312.5C 510.381,303.213 512.048,293.88 513.5,284.5C 512.167,284.5 510.833,284.5 509.5,284.5C 509.5,282.167 509.5,279.833 509.5,277.5C 511.792,277.756 513.959,277.423 516,276.5C 515.816,270.827 517.983,266.494 522.5,263.5 Z"/></g>
<g><path style="opacity:1" fill="#5a5859" d="M 792.5,264.5 C 795.687,263.194 799.02,263.194 802.5,264.5C 802.376,265.107 802.043,265.44 801.5,265.5C 798.713,264.523 795.713,264.19 792.5,264.5 Z"/></g>
<g><path style="opacity:1" fill="#636262" d="M 871.5,264.5 C 874.625,263.521 877.958,263.187 881.5,263.5C 881.737,264.791 881.404,265.791 880.5,266.5C 878.012,264.612 875.012,263.945 871.5,264.5 Z"/></g>
<g><path style="opacity:1" fill="#5e5e5e" d="M 1569.5,264.5 C 1572.69,263.194 1576.02,263.194 1579.5,264.5C 1579.38,265.107 1579.04,265.44 1578.5,265.5C 1575.71,264.523 1572.71,264.19 1569.5,264.5 Z"/></g>
<g><path style="opacity:1" fill="#575757" d="M 1588.5,264.5 C 1591.69,263.194 1595.02,263.194 1598.5,264.5C 1598.38,265.107 1598.04,265.44 1597.5,265.5C 1594.71,264.523 1591.71,264.19 1588.5,264.5 Z"/></g>
<g><path style="opacity:1" fill="#f8f8f8" d="M 174.5,272.5 C 169.906,272.135 165.573,271.135 161.5,269.5C 161.5,267.833 161.5,266.167 161.5,264.5C 174.504,264.333 187.504,264.5 200.5,265C 199.833,267.333 199.167,269.667 198.5,272C 193.845,272.499 189.179,272.666 184.5,272.5C 181.709,285.789 179.042,299.122 176.5,312.5C 173.167,312.5 169.833,312.5 166.5,312.5C 169.258,299.205 171.924,285.872 174.5,272.5 Z"/></g>
<g><path style="opacity:1" fill="#f9f9f9" d="M 206.5,264.5 C 209.5,264.5 212.5,264.5 215.5,264.5C 214.885,269.576 213.885,274.576 212.5,279.5C 212.833,279.833 213.167,280.167 213.5,280.5C 218.647,276.314 224.314,275.481 230.5,278C 233.36,281.681 234.193,285.848 233,290.5C 231.049,297.754 229.549,305.087 228.5,312.5C 225.5,312.5 222.5,312.5 219.5,312.5C 220.564,304.617 221.897,296.784 223.5,289C 223.875,283.857 221.541,282.191 216.5,284C 214.291,285.873 212.458,288.04 211,290.5C 208.794,297.696 207.294,305.029 206.5,312.5C 203.167,312.5 199.833,312.5 196.5,312.5C 200.047,296.551 203.381,280.551 206.5,264.5 Z"/></g>
<g><path style="opacity:1" fill="#f7f7f7" d="M 460.5,264.5 C 464.012,263.945 467.012,264.612 469.5,266.5C 467.477,275.781 465.644,285.114 464,294.5C 460.901,311.57 451.401,316.903 435.5,310.5C 432.075,307.238 430.742,303.238 431.5,298.5C 433.167,298.5 434.833,298.5 436.5,298.5C 437.833,298.5 439.167,298.5 440.5,298.5C 440.232,300.099 440.566,301.432 441.5,302.5C 445.166,305.339 448.666,305.005 452,301.5C 454.786,289.017 457.619,276.684 460.5,264.5 Z"/></g>
<g><path style="opacity:1" fill="#fafafa" d="M 792.5,264.5 C 795.713,264.19 798.713,264.523 801.5,265.5C 798.022,281.077 795.022,296.744 792.5,312.5C 789.102,312.82 785.768,312.487 782.5,311.5C 778.236,301.207 774.069,290.873 770,280.5C 767.319,290.727 764.819,301.061 762.5,311.5C 759.5,312.833 756.5,312.833 753.5,311.5C 756.837,295.825 760.17,280.159 763.5,264.5C 766.898,264.18 770.232,264.513 773.5,265.5C 777.569,275.541 781.736,285.541 786,295.5C 788.067,285.136 790.234,274.802 792.5,264.5 Z"/></g>
<g><path style="opacity:1" fill="#fefefe" d="M 871.5,264.5 C 875.012,263.945 878.012,264.612 880.5,266.5C 880.167,268.5 879.833,270.5 879.5,272.5C 876.5,272.5 873.5,272.5 870.5,272.5C 871.092,269.873 871.425,267.206 871.5,264.5 Z"/></g>
<g><path style="opacity:1" fill="#f8f8f8" d="M 1009.5,264.5 C 1012.83,264.5 1016.17,264.5 1019.5,264.5C 1016.4,279.826 1013.23,295.16 1010,310.5C 1007.2,312.344 1004.03,313.011 1000.5,312.5C 1003.5,296.479 1006.5,280.479 1009.5,264.5 Z"/></g>
<g><path style="opacity:1" fill="#f9f9f9" d="M 1058.5,264.5 C 1062.5,264.5 1066.5,264.5 1070.5,264.5C 1072.83,280.503 1075.17,296.503 1077.5,312.5C 1074.5,312.5 1071.5,312.5 1068.5,312.5C 1068.06,308.846 1067.72,305.179 1067.5,301.5C 1060.8,301.17 1054.13,301.503 1047.5,302.5C 1046.09,305.661 1044.42,308.661 1042.5,311.5C 1038.88,312.659 1035.21,312.825 1031.5,312C 1040.73,296.278 1049.73,280.445 1058.5,264.5 Z"/></g>
<g><path style="opacity:1" fill="#f9f9f9" d="M 1205.5,264.5 C 1208.83,264.5 1212.17,264.5 1215.5,264.5C 1212.34,279.814 1209.17,295.148 1206,310.5C 1203.2,312.344 1200.03,313.011 1196.5,312.5C 1199.5,296.5 1202.5,280.5 1205.5,264.5 Z"/></g>
<g><path style="opacity:1" fill="#fbfbfb" d="M 1467.5,270.5 C 1459.4,271.138 1451.4,271.805 1443.5,272.5C 1442.26,275.647 1441.26,278.98 1440.5,282.5C 1448.14,283.497 1455.8,283.831 1463.5,283.5C 1463.17,286.167 1462.83,288.833 1462.5,291.5C 1454.1,290.866 1446.1,291.533 1438.5,293.5C 1437.14,299.444 1435.98,305.444 1435,311.5C 1431.61,312.456 1428.11,312.789 1424.5,312.5C 1428.03,296.568 1431.36,280.568 1434.5,264.5C 1445.84,264.333 1457.17,264.5 1468.5,265C 1467.59,266.699 1467.26,268.533 1467.5,270.5 Z"/></g>
<g><path style="opacity:1" fill="#f7f7f7" d="M 1550.5,264.5 C 1553.85,264.335 1557.18,264.502 1560.5,265C 1559.77,267.124 1559.11,269.291 1558.5,271.5C 1555.57,272.484 1552.57,272.817 1549.5,272.5C 1549.58,269.794 1549.91,267.127 1550.5,264.5 Z"/></g>
<g><path style="opacity:1" fill="#fafafa" d="M 1569.5,264.5 C 1572.71,264.19 1575.71,264.523 1578.5,265.5C 1575.11,281.097 1572.11,296.764 1569.5,312.5C 1566.15,312.665 1562.82,312.498 1559.5,312C 1563.22,296.272 1566.56,280.439 1569.5,264.5 Z"/></g>
<g><path style="opacity:1" fill="#fbfbfb" d="M 1588.5,264.5 C 1591.71,264.19 1594.71,264.523 1597.5,265.5C 1596.78,267.764 1596.45,270.097 1596.5,272.5C 1593.15,272.665 1589.82,272.498 1586.5,272C 1587.35,269.564 1588.02,267.064 1588.5,264.5 Z"/></g>
<g><path style="opacity:1" fill="#f5f5f5" d="M 858.5,265.5 C 859.097,265.735 859.43,266.235 859.5,267C 858.511,270.447 857.844,273.947 857.5,277.5C 859.167,277.5 860.833,277.5 862.5,277.5C 862.326,279.861 861.993,282.194 861.5,284.5C 859.5,284.5 857.5,284.5 855.5,284.5C 853.862,291.411 852.862,298.411 852.5,305.5C 854.527,305.338 856.527,305.505 858.5,306C 857.833,308.333 857.167,310.667 856.5,313C 853.5,313.667 850.5,313.667 847.5,313C 845.508,312.426 844.008,311.259 843,309.5C 843.032,301.105 843.865,292.772 845.5,284.5C 844.022,284.762 842.689,284.429 841.5,283.5C 842.348,281.591 842.682,279.591 842.5,277.5C 847.272,278.397 849.605,276.397 849.5,271.5C 852.738,269.725 855.738,267.725 858.5,265.5 Z"/></g>
<g><path style="opacity:1" fill="#f7f7f7" d="M 1335.5,265.5 C 1336.04,265.56 1336.38,265.893 1336.5,266.5C 1335.32,270.072 1334.65,273.738 1334.5,277.5C 1336.17,277.5 1337.83,277.5 1339.5,277.5C 1339.01,279.806 1338.67,282.139 1338.5,284.5C 1336.4,284.201 1334.4,284.534 1332.5,285.5C 1331.1,291.311 1329.77,297.144 1328.5,303C 1328.64,303.772 1328.98,304.439 1329.5,305C 1331.13,305.494 1332.8,305.66 1334.5,305.5C 1334.87,312.509 1331.54,315.009 1324.5,313C 1320.25,311.509 1318.59,308.509 1319.5,304C 1320.31,297.449 1321.31,290.949 1322.5,284.5C 1321.02,284.762 1319.69,284.429 1318.5,283.5C 1319.35,281.591 1319.68,279.591 1319.5,277.5C 1324.03,278.122 1326.2,276.122 1326,271.5C 1329.34,269.637 1332.51,267.637 1335.5,265.5 Z"/></g>
<g><path style="opacity:1" fill="#f6f6f6" d="M 1616.5,265.5 C 1617.04,265.56 1617.38,265.893 1617.5,266.5C 1616.08,270.028 1615.41,273.694 1615.5,277.5C 1617.29,277.215 1618.95,277.548 1620.5,278.5C 1619.65,280.409 1619.32,282.409 1619.5,284.5C 1617.21,284.244 1615.04,284.577 1613,285.5C 1611.9,291.18 1610.73,296.847 1609.5,302.5C 1609.61,303.442 1609.94,304.275 1610.5,305C 1612.13,305.494 1613.8,305.66 1615.5,305.5C 1615.17,308.167 1614.83,310.833 1614.5,313.5C 1611.48,313.665 1608.48,313.498 1605.5,313C 1600.08,310.983 1598.24,307.15 1600,301.5C 1601.7,295.918 1602.86,290.251 1603.5,284.5C 1602.17,284.5 1600.83,284.5 1599.5,284.5C 1599.67,282.139 1600.01,279.806 1600.5,277.5C 1605.03,278.122 1607.2,276.122 1607,271.5C 1610.34,269.637 1613.51,267.637 1616.5,265.5 Z"/></g>
<g><path style="opacity:1" fill="#a19da0" d="M 161.5,269.5 C 165.573,271.135 169.906,272.135 174.5,272.5C 169.833,272.5 165.167,272.5 160.5,272.5C 160.263,271.209 160.596,270.209 161.5,269.5 Z"/></g>
<g><path style="opacity:1" fill="#9e9c9d" d="M 1467.5,270.5 C 1459.9,272.467 1451.9,273.134 1443.5,272.5C 1451.4,271.805 1459.4,271.138 1467.5,270.5 Z"/></g>
<g><path style="opacity:1" fill="#54201e" d="M 159.5,274.5 C 163.634,273.515 167.968,273.182 172.5,273.5C 172.737,274.791 172.404,275.791 171.5,276.5C 167.971,274.577 163.971,273.911 159.5,274.5 Z"/></g>
<g><path style="opacity:1" fill="#c01330" d="M 201.5,266.5 C 202.552,266.351 203.552,266.517 204.5,267C 202.544,271.61 201.544,276.444 201.5,281.5C 195.875,282.493 190.208,283.16 184.5,283.5C 185.159,280.545 185.492,277.545 185.5,274.5C 190.544,274.827 195.544,274.494 200.5,273.5C 201.374,271.253 201.708,268.92 201.5,266.5 Z"/></g>
<g><path style="opacity:1" fill="#f5f5f5" d="M 252.5,276.5 C 272.051,275.295 278.884,283.961 273,302.5C 267.056,312.124 258.556,315.29 247.5,312C 241.537,308.574 238.87,303.408 239.5,296.5C 239.333,286.819 243.666,280.152 252.5,276.5 Z"/></g>
<g><path style="opacity:1" fill="#f8f8f8" d="M 300.5,276.5 C 306.07,275.416 310.57,277.083 314,281.5C 320.502,275.372 327.169,275.039 334,280.5C 334.667,283.167 334.667,285.833 334,288.5C 332.304,296.477 330.804,304.477 329.5,312.5C 326.5,312.5 323.5,312.5 320.5,312.5C 321.2,304.397 322.534,296.397 324.5,288.5C 324.902,283.931 322.902,282.431 318.5,284C 315.894,285.938 314.061,288.438 313,291.5C 311.597,298.537 310.097,305.537 308.5,312.5C 305.5,312.5 302.5,312.5 299.5,312.5C 301.225,303.48 302.725,294.48 304,285.5C 299.127,282.747 295.46,284.08 293,289.5C 290.703,297.02 289.203,304.687 288.5,312.5C 285.167,312.5 281.833,312.5 278.5,312.5C 280.941,300.85 283.275,289.183 285.5,277.5C 288.5,277.5 291.5,277.5 294.5,277.5C 294.351,278.552 294.517,279.552 295,280.5C 296.812,279.023 298.645,277.69 300.5,276.5 Z"/></g>
<g><path style="opacity:1" fill="#f6f6f6" d="M 352.5,276.5 C 356.514,276.334 360.514,276.501 364.5,277C 367.102,277.883 369.269,279.383 371,281.5C 370.371,291.826 369.538,302.159 368.5,312.5C 365.5,312.5 362.5,312.5 359.5,312.5C 359.657,311.127 359.49,309.793 359,308.5C 353.215,314.619 347.215,314.952 341,309.5C 337.273,301.274 339.44,295.441 347.5,292C 352.167,291.333 356.833,290.667 361.5,290C 362.968,284.187 360.635,282.187 354.5,284C 353.48,285.556 352.147,286.722 350.5,287.5C 348.218,286.777 345.884,286.443 343.5,286.5C 343.383,284.516 344.05,282.85 345.5,281.5C 347.724,279.566 350.058,277.899 352.5,276.5 Z"/></g>
<g><path style="opacity:1" fill="#f4f4f4" d="M 389.5,276.5 C 393.846,276.334 398.179,276.501 402.5,277C 407.201,278.528 409.868,281.695 410.5,286.5C 403.884,285.399 397.217,284.566 390.5,284C 389.14,285.938 389.473,287.604 391.5,289C 397.923,290.134 403.423,292.968 408,297.5C 409.104,303.186 407.271,307.686 402.5,311C 393.763,314.992 385.596,314.158 378,308.5C 377.15,306.99 376.317,305.49 375.5,304C 380.386,300.27 384.719,300.937 388.5,306C 392.837,307.418 396.171,306.252 398.5,302.5C 398.023,301.522 397.357,300.689 396.5,300C 392.15,298.491 387.817,296.824 383.5,295C 379.5,290 379.5,285 383.5,280C 385.727,279.059 387.727,277.892 389.5,276.5 Z"/></g>
<g><path style="opacity:1" fill="#f5f5f5" d="M 484.5,276.5 C 499.996,274.998 506.663,281.998 504.5,297.5C 496.5,297.5 488.5,297.5 480.5,297.5C 480.484,303.653 483.484,306.486 489.5,306C 491.665,304.661 493.665,303.161 495.5,301.5C 497.909,301.915 500.242,302.582 502.5,303.5C 498.032,311.233 491.366,314.4 482.5,313C 477,311.5 473.5,308 472,302.5C 469.519,290.466 473.686,281.799 484.5,276.5 Z"/></g>
<g><path style="opacity:1" fill="#f6f6f6" d="M 565.5,276.5 C 580.996,274.998 587.663,281.998 585.5,297.5C 577.5,297.5 569.5,297.5 561.5,297.5C 561.531,303.702 564.531,306.535 570.5,306C 572.677,304.485 574.844,302.985 577,301.5C 579.226,301.978 581.392,302.645 583.5,303.5C 576.086,314.713 566.919,316.38 556,308.5C 549.003,294.667 552.17,284 565.5,276.5 Z"/></g>
<g><path style="opacity:1" fill="#f7f7f7" d="M 609.5,276.5 C 617.576,275.546 619.242,278.213 614.5,284.5C 609.553,284.414 605.72,286.414 603,290.5C 600.342,297.625 598.508,304.958 597.5,312.5C 594.5,312.5 591.5,312.5 588.5,312.5C 590.247,300.768 592.247,289.101 594.5,277.5C 597.5,277.5 600.5,277.5 603.5,277.5C 603.34,279.199 603.506,280.866 604,282.5C 605.36,279.977 607.193,277.977 609.5,276.5 Z"/></g>
<g><path style="opacity:1" fill="#f4f4f4" d="M 629.5,276.5 C 635.869,275.871 641.702,277.205 647,280.5C 649.316,284.695 647.982,286.695 643,286.5C 640.652,286.742 638.818,285.908 637.5,284C 634.571,283.223 631.737,283.39 629,284.5C 628.28,286.112 628.446,287.612 629.5,289C 635.749,289.967 641.249,292.467 646,296.5C 647.437,307.905 642.27,313.572 630.5,313.5C 622.241,314.044 616.574,310.544 613.5,303C 615.366,302.015 617.366,301.515 619.5,301.5C 622.915,303.547 626.582,305.213 630.5,306.5C 635.249,306.691 636.916,304.691 635.5,300.5C 630.963,299.154 626.629,297.321 622.5,295C 616.991,289.364 617.324,284.031 623.5,279C 625.611,278.155 627.611,277.322 629.5,276.5 Z"/></g>
<g><path style="opacity:1" fill="#f6f6f6" d="M 667.5,276.5 C 688.737,276.283 694.904,285.95 686,305.5C 677.167,314.852 667.5,315.852 657,308.5C 650.361,294.359 653.861,283.692 667.5,276.5 Z"/></g>
<g><path style="opacity:1" fill="#f8f8f8" d="M 716.5,276.5 C 726.253,274.923 730.753,278.923 730,288.5C 728.305,296.476 726.805,304.476 725.5,312.5C 722.5,312.5 719.5,312.5 716.5,312.5C 717.587,304.312 718.921,296.145 720.5,288C 721.056,285.055 719.89,283.555 717,283.5C 712.118,284.712 708.785,287.712 707,292.5C 705.251,299.076 704.084,305.743 703.5,312.5C 700.167,312.5 696.833,312.5 693.5,312.5C 696.111,300.888 698.444,289.222 700.5,277.5C 703.5,277.5 706.5,277.5 709.5,277.5C 709.281,278.675 709.614,279.675 710.5,280.5C 712.565,279.143 714.565,277.81 716.5,276.5 Z"/></g>
<g><path style="opacity:1" fill="#f5f5f5" d="M 815.5,276.5 C 823.187,274.996 829.687,276.996 835,282.5C 835.667,285.167 835.667,287.833 835,290.5C 832.412,297.344 831.579,304.344 832.5,311.5C 829.232,312.487 825.898,312.82 822.5,312.5C 822.719,311.325 822.386,310.325 821.5,309.5C 814.447,315.418 808.281,314.751 803,307.5C 800.834,300.001 803.334,294.834 810.5,292C 815.464,291.088 820.464,290.588 825.5,290.5C 826.578,283.935 823.911,281.768 817.5,284C 816.48,285.556 815.147,286.722 813.5,287.5C 811.218,286.777 808.884,286.443 806.5,286.5C 808.075,281.923 811.075,278.589 815.5,276.5 Z"/></g>
<g><path style="opacity:1" fill="#f3f3f3" d="M 895.5,276.5 C 912.011,274.183 919.511,281.183 918,297.5C 912.593,311.619 902.76,316.119 888.5,311C 880.13,302.654 879.297,293.487 886,283.5C 888.79,280.535 891.957,278.202 895.5,276.5 Z"/></g>
<g><path style="opacity:1" fill="#f8f8f8" d="M 944.5,276.5 C 955.682,274.847 960.182,279.514 958,290.5C 956.605,297.878 955.105,305.211 953.5,312.5C 950.5,312.5 947.5,312.5 944.5,312.5C 945.524,304.049 947.19,295.716 949.5,287.5C 947.661,283.222 944.661,282.389 940.5,285C 938.383,286.731 936.883,288.898 936,291.5C 933.923,298.386 932.423,305.386 931.5,312.5C 928.5,312.5 925.5,312.5 922.5,312.5C 924.654,300.879 926.654,289.213 928.5,277.5C 931.5,277.5 934.5,277.5 937.5,277.5C 937.343,278.873 937.51,280.207 938,281.5C 939.965,279.45 942.132,277.783 944.5,276.5 Z"/></g>
<g><path style="opacity:1" fill="#f5f5f5" d="M 976.5,276.5 C 981.599,276.175 986.599,276.675 991.5,278C 993.378,279.543 994.878,281.376 996,283.5C 995.171,291.16 994.004,298.827 992.5,306.5C 992.54,308.429 992.873,310.262 993.5,312C 990.183,312.498 986.85,312.665 983.5,312.5C 983.719,311.325 983.386,310.325 982.5,309.5C 976.558,314.717 970.725,314.717 965,309.5C 962.188,303.098 963.355,297.598 968.5,293C 974.09,291.63 979.757,290.63 985.5,290C 986.576,288.274 986.743,286.441 986,284.5C 981.378,282.61 977.545,283.61 974.5,287.5C 972.218,286.777 969.884,286.443 967.5,286.5C 969.075,281.923 972.075,278.589 976.5,276.5 Z"/></g>
<g><path style="opacity:1" fill="#101010" d="M 1062.5,274.5 C 1064.14,280.603 1065.14,286.936 1065.5,293.5C 1060.82,293.666 1056.15,293.499 1051.5,293C 1055.56,287.053 1059.22,280.887 1062.5,274.5 Z"/></g>
<g><path style="opacity:1" fill="#f7f7f7" d="M 1099.5,276.5 C 1104.72,276.134 1109.72,276.968 1114.5,279C 1122.27,286.697 1120.94,289.697 1110.5,288C 1106.11,282.115 1101.61,282.282 1097,288.5C 1094.86,292.97 1094.19,297.637 1095,302.5C 1096.86,305.207 1099.36,306.041 1102.5,305C 1104.95,303.171 1107.29,301.338 1109.5,299.5C 1111.91,299.915 1114.24,300.582 1116.5,301.5C 1110.15,313.93 1100.98,316.597 1089,309.5C 1084.44,301.247 1084.44,292.913 1089,284.5C 1091.94,280.963 1095.44,278.297 1099.5,276.5 Z"/></g>
<g><path style="opacity:1" fill="#f3f3f3" d="M 1137.5,276.5 C 1145.61,274.98 1151.78,277.647 1156,284.5C 1156.49,285.793 1156.66,287.127 1156.5,288.5C 1153.52,288.963 1150.52,289.296 1147.5,289.5C 1146.31,283.546 1142.97,282.046 1137.5,285C 1132.44,290.758 1131.27,297.258 1134,304.5C 1138.73,306.565 1142.23,305.231 1144.5,300.5C 1147.84,299.441 1151.18,299.608 1154.5,301C 1149,312.543 1140.33,315.876 1128.5,311C 1122.36,304.908 1120.86,297.741 1124,289.5C 1126.44,282.888 1130.94,278.555 1137.5,276.5 Z"/></g>
<g><path style="opacity:1" fill="#f5f5f5" d="M 1173.5,276.5 C 1189,274.998 1195.66,281.998 1193.5,297.5C 1185.5,297.5 1177.5,297.5 1169.5,297.5C 1169.48,303.653 1172.48,306.486 1178.5,306C 1180.67,304.661 1182.67,303.161 1184.5,301.5C 1186.91,301.915 1189.24,302.582 1191.5,303.5C 1187.03,311.233 1180.37,314.4 1171.5,313C 1165.97,311.474 1162.47,307.974 1161,302.5C 1158.52,290.466 1162.69,281.799 1173.5,276.5 Z"/></g>
<g><path style="opacity:1" fill="#f7f7f7" d="M 1229.5,276.5 C 1245,274.998 1251.66,281.998 1249.5,297.5C 1241.5,297.5 1233.5,297.5 1225.5,297.5C 1225.53,303.702 1228.53,306.535 1234.5,306C 1236.68,304.485 1238.84,302.985 1241,301.5C 1243.23,301.978 1245.39,302.645 1247.5,303.5C 1240.09,314.713 1230.92,316.38 1220,308.5C 1213,294.667 1216.17,284 1229.5,276.5 Z"/></g>
<g><path style="opacity:1" fill="#f7f7f7" d="M 1274.5,276.5 C 1282.08,276.08 1283.42,278.747 1278.5,284.5C 1271.51,284.985 1267.01,288.652 1265,295.5C 1263.64,301.14 1262.47,306.806 1261.5,312.5C 1258.5,312.5 1255.5,312.5 1252.5,312.5C 1254.5,301.486 1256.67,290.486 1259,279.5C 1261.46,277.679 1264.29,277.012 1267.5,277.5C 1267.34,279.199 1267.51,280.866 1268,282.5C 1269.49,279.686 1271.66,277.686 1274.5,276.5 Z"/></g>
<g><path style="opacity:1" fill="#f6f6f6" d="M 1292.5,276.5 C 1296.51,276.334 1300.51,276.501 1304.5,277C 1307.2,277.69 1309.36,279.19 1311,281.5C 1311.67,285.167 1311.67,288.833 1311,292.5C 1308.77,298.748 1308.27,305.081 1309.5,311.5C 1306.23,312.487 1302.9,312.82 1299.5,312.5C 1299.66,311.127 1299.49,309.793 1299,308.5C 1293.18,314.482 1287.18,314.815 1281,309.5C 1277.27,301.274 1279.44,295.441 1287.5,292C 1292.17,291.333 1296.83,290.667 1301.5,290C 1302.58,288.274 1302.74,286.441 1302,284.5C 1297.38,282.61 1293.54,283.61 1290.5,287.5C 1288.22,286.777 1285.88,286.443 1283.5,286.5C 1285.08,281.923 1288.08,278.589 1292.5,276.5 Z"/></g>
<g><path style="opacity:1" fill="#f6f6f6" d="M 1356.5,276.5 C 1372.98,276.452 1379.15,284.452 1375,300.5C 1370.46,310.69 1362.63,314.857 1351.5,313C 1341.14,308.444 1337.64,300.611 1341,289.5C 1343.83,282.195 1349,277.862 1356.5,276.5 Z"/></g>
<g><path style="opacity:1" fill="#f8f8f8" d="M 1401.5,276.5 C 1409.34,276.008 1410.67,278.841 1405.5,285C 1398.01,285.152 1393.51,288.985 1392,296.5C 1390.63,301.76 1389.8,307.093 1389.5,312.5C 1386.17,312.5 1382.83,312.5 1379.5,312.5C 1381.51,300.764 1383.84,289.097 1386.5,277.5C 1389.52,277.335 1392.52,277.502 1395.5,278C 1394.45,279.388 1394.28,280.888 1395,282.5C 1397.06,280.266 1399.23,278.266 1401.5,276.5 Z"/></g>
<g><path style="opacity:1" fill="#f5f5f5" d="M 1479.5,276.5 C 1487.19,274.996 1493.69,276.996 1499,282.5C 1499.67,285.167 1499.67,287.833 1499,290.5C 1496.19,297.53 1495.35,304.697 1496.5,312C 1493.18,312.498 1489.85,312.665 1486.5,312.5C 1486.72,311.325 1486.39,310.325 1485.5,309.5C 1478.53,315.307 1472.36,314.641 1467,307.5C 1465.57,302.243 1466.74,297.743 1470.5,294C 1477.07,292.074 1483.57,290.24 1490,288.5C 1490.71,286.633 1490.21,285.133 1488.5,284C 1483.95,282.662 1480.28,283.829 1477.5,287.5C 1475.09,287.085 1472.76,286.418 1470.5,285.5C 1472.55,281.451 1475.55,278.451 1479.5,276.5 Z"/></g>
<g><path style="opacity:1" fill="#f4f4f4" d="M 1520.5,276.5 C 1526.28,275.708 1531.45,277.041 1536,280.5C 1537.71,282.909 1538.54,285.575 1538.5,288.5C 1533.49,289.347 1529.49,287.847 1526.5,284C 1520.21,283.266 1516.38,286.099 1515,292.5C 1514.02,296.9 1514.52,301.067 1516.5,305C 1521.17,306.497 1524.5,304.997 1526.5,300.5C 1529.84,299.441 1533.18,299.608 1536.5,301C 1531.04,312.535 1522.38,315.869 1510.5,311C 1502.67,301.757 1502.5,292.257 1510,282.5C 1513.07,279.554 1516.57,277.554 1520.5,276.5 Z"/></g>
<g><path style="opacity:1" fill="#c31a32" d="M 129.5,264.5 C 135.982,265.577 140.982,268.91 144.5,274.5C 149.474,275.395 154.474,275.395 159.5,274.5C 163.971,273.911 167.971,274.577 171.5,276.5C 170.793,279.786 170.46,283.119 170.5,286.5C 163.482,287.419 156.482,288.419 149.5,289.5C 148.664,295.018 146.664,300.018 143.5,304.5C 143.264,300.326 143.264,296.159 143.5,292C 146.167,290.667 146.167,289.333 143.5,288C 144.232,284.847 143.899,281.68 142.5,278.5C 140.056,274.887 137.056,271.72 133.5,269C 130.995,267.227 127.662,265.893 123.5,265C 125.473,264.505 127.473,264.338 129.5,264.5 Z"/></g>
<g><path style="opacity:1" fill="#f8f8f8" d="M 868.5,277.5 C 871.898,277.18 875.232,277.513 878.5,278.5C 875.66,289.701 873.326,301.034 871.5,312.5C 868.5,312.5 865.5,312.5 862.5,312.5C 864.084,300.753 866.084,289.086 868.5,277.5 Z"/></g>
<g><path style="opacity:1" fill="#fafafa" d="M 1547.5,277.5 C 1550.9,277.18 1554.23,277.513 1557.5,278.5C 1554.91,289.783 1552.58,301.117 1550.5,312.5C 1547.5,312.5 1544.5,312.5 1541.5,312.5C 1543.39,300.837 1545.39,289.17 1547.5,277.5 Z"/></g>
<g><path style="opacity:1" fill="#fafafa" d="M 1585.5,277.5 C 1588.5,277.5 1591.5,277.5 1594.5,277.5C 1592.66,288.548 1590.49,299.548 1588,310.5C 1585.2,312.344 1582.03,313.011 1578.5,312.5C 1580.45,300.731 1582.79,289.064 1585.5,277.5 Z"/></g>
<g><path style="opacity:1" fill="#f7f7f7" d="M 1622.5,277.5 C 1625.83,277.5 1629.17,277.5 1632.5,277.5C 1632.91,285.613 1634.07,293.613 1636,301.5C 1639.74,293.676 1643.74,286.009 1648,278.5C 1651.41,277.378 1654.91,277.211 1658.5,278C 1651.21,290.753 1644.04,303.586 1637,316.5C 1634.95,319.423 1632.79,322.257 1630.5,325C 1626.93,326.405 1623.26,326.738 1619.5,326C 1617.71,323.894 1617.04,321.394 1617.5,318.5C 1623.76,319.739 1627.42,317.239 1628.5,311C 1626.18,299.872 1624.18,288.706 1622.5,277.5 Z"/></g>
<g><path style="opacity:1" fill="#df8a7e" d="M 124.5,274.5 C 125.899,275.89 127.566,276.89 129.5,277.5C 130.72,279.282 131.386,281.282 131.5,283.5C 126.629,278.375 120.629,276.541 113.5,278C 104.897,282.39 102.23,289.224 105.5,298.5C 109.047,301.374 113.047,303.374 117.5,304.5C 129.188,303.485 133.855,297.152 131.5,285.5C 134.998,299.841 129.331,307.007 114.5,307C 109.611,306.444 106.111,303.944 104,299.5C 101.033,294.403 100.7,289.07 103,283.5C 105.511,281.321 107.678,278.821 109.5,276C 114.401,274.675 119.401,274.175 124.5,274.5 Z"/></g>
<g><path style="opacity:1" fill="#141414" d="M 486.5,283.5 C 493.167,282.833 496.167,285.833 495.5,292.5C 490.833,292.5 486.167,292.5 481.5,292.5C 481.343,291.127 481.51,289.793 482,288.5C 483.707,286.963 485.207,285.296 486.5,283.5 Z"/></g>
<g><path style="opacity:1" fill="#060606" d="M 576.5,288.5 C 576.5,289.5 576.5,290.5 576.5,291.5C 571.833,291.5 567.167,291.5 562.5,291.5C 563.928,285.554 567.595,283.054 573.5,284C 575.141,285.129 576.141,286.629 576.5,288.5 Z"/></g>
<g><path style="opacity:1" fill="#131313" d="M 1175.5,283.5 C 1182.17,282.833 1185.17,285.833 1184.5,292.5C 1179.83,292.5 1175.17,292.5 1170.5,292.5C 1170.89,288.779 1172.56,285.779 1175.5,283.5 Z"/></g>
<g><path style="opacity:1" fill="#050505" d="M 1240.5,287.5 C 1240.5,288.833 1240.5,290.167 1240.5,291.5C 1235.71,292.097 1231.37,291.43 1227.5,289.5C 1229.05,284.458 1232.38,282.625 1237.5,284C 1238.71,285.039 1239.71,286.206 1240.5,287.5 Z"/></g>
<g><path style="opacity:1" fill="#090909" d="M 256.5,283.5 C 262.913,282.747 265.913,285.58 265.5,292C 265.638,301.197 261.304,305.531 252.5,305C 246.537,296.666 247.871,289.499 256.5,283.5 Z"/></g>
<g><path style="opacity:1" fill="#0a0a0a" d="M 670.5,283.5 C 680.426,284.203 683.259,289.203 679,298.5C 676.218,305.517 671.551,307.183 665,303.5C 661.704,295.287 663.537,288.62 670.5,283.5 Z"/></g>
<g><path style="opacity:1" fill="#070707" d="M 899.5,283.5 C 905.253,283.42 908.253,286.253 908.5,292C 908.891,299.424 905.557,303.924 898.5,305.5C 893.608,304.598 891.275,301.598 891.5,296.5C 891.895,290.699 894.562,286.365 899.5,283.5 Z"/></g>
<g><path style="opacity:1" fill="#090909" d="M 1357.5,283.5 C 1363.91,282.747 1366.91,285.58 1366.5,292C 1366.64,301.197 1362.3,305.531 1353.5,305C 1347.54,296.666 1348.87,289.499 1357.5,283.5 Z"/></g>
<g><path style="opacity:1" fill="#d25f57" d="M 114.5,265.5 C 114.47,266.497 114.97,267.164 116,267.5C 119.654,267.714 123.32,267.714 127,267.5C 129.23,269.385 131.73,270.885 134.5,272C 140.963,279.733 143.13,288.566 141,298.5C 139.969,301.539 138.135,304.039 135.5,306C 136.833,307.84 136.666,308.34 135,307.5C 132.828,308.509 131.662,310.176 131.5,312.5C 126.469,313.783 121.469,313.783 116.5,312.5C 120.25,311.199 123.917,309.533 127.5,307.5C 128.347,306.155 129.513,305.155 131,304.5C 131.408,301.58 132.741,299.246 135,297.5C 135.667,292.5 135.667,287.5 135,282.5C 133.924,279.921 132.091,278.254 129.5,277.5C 127.566,276.89 125.899,275.89 124.5,274.5C 122.777,273.2 120.61,272.533 118,272.5C 115.293,272.628 112.793,273.295 110.5,274.5C 109.914,274.291 109.414,273.957 109,273.5C 107.667,275.167 106.333,276.833 105,278.5C 104.667,277.833 104.333,277.167 104,276.5C 103.376,279.274 101.876,281.274 99.5,282.5C 102.018,274.648 107.018,268.981 114.5,265.5 Z"/></g>
<g><path style="opacity:1" fill="#c74143" d="M 129.5,264.5 C 127.473,264.338 125.473,264.505 123.5,265C 127.662,265.893 130.995,267.227 133.5,269C 137.056,271.72 140.056,274.887 142.5,278.5C 143.899,281.68 144.232,284.847 143.5,288C 146.167,289.333 146.167,290.667 143.5,292C 143.264,296.159 143.264,300.326 143.5,304.5C 140.322,308.336 136.322,311.002 131.5,312.5C 131.662,310.176 132.828,308.509 135,307.5C 136.666,308.34 136.833,307.84 135.5,306C 138.135,304.039 139.969,301.539 141,298.5C 143.13,288.566 140.963,279.733 134.5,272C 131.73,270.885 129.23,269.385 127,267.5C 123.32,267.714 119.654,267.714 116,267.5C 114.97,267.164 114.47,266.497 114.5,265.5C 119.494,263.407 124.494,263.074 129.5,264.5 Z"/></g>
<g><path style="opacity:1" fill="#636363" d="M 576.5,288.5 C 577.434,289.568 577.768,290.901 577.5,292.5C 572.305,292.821 567.305,292.487 562.5,291.5C 567.167,291.5 571.833,291.5 576.5,291.5C 576.5,290.5 576.5,289.5 576.5,288.5 Z"/></g>
<g><path style="opacity:1" fill="#626262" d="M 1240.5,287.5 C 1241.45,288.919 1241.78,290.585 1241.5,292.5C 1236.5,292.5 1231.5,292.5 1226.5,292.5C 1226.26,291.209 1226.6,290.209 1227.5,289.5C 1231.37,291.43 1235.71,292.097 1240.5,291.5C 1240.5,290.167 1240.5,288.833 1240.5,287.5 Z"/></g>
<g><path style="opacity:1" fill="#606060" d="M 1462.5,291.5 C 1454.6,292.195 1446.6,292.862 1438.5,293.5C 1446.1,291.533 1454.1,290.866 1462.5,291.5 Z"/></g>
<g><path style="opacity:1" fill="#0e0e0e" d="M 354.5,296.5 C 356.5,296.5 358.5,296.5 360.5,296.5C 360.152,303.685 356.485,306.519 349.5,305C 348.167,303 348.167,301 349.5,299C 351.315,298.243 352.981,297.41 354.5,296.5 Z"/></g>
<g><path style="opacity:1" fill="#121212" d="M 817.5,296.5 C 819.5,296.5 821.5,296.5 823.5,296.5C 822.996,303.868 819.329,306.702 812.5,305C 811.167,303 811.167,301 812.5,299C 814.315,298.243 815.981,297.41 817.5,296.5 Z"/></g>
<g><path style="opacity:1" fill="#111111" d="M 978.5,296.5 C 980.5,296.5 982.5,296.5 984.5,296.5C 984.441,301.894 981.775,305.228 976.5,306.5C 972.601,305.181 971.601,302.681 973.5,299C 975.315,298.243 976.981,297.41 978.5,296.5 Z"/></g>
<g><path style="opacity:1" fill="#0e0e0e" d="M 1294.5,296.5 C 1296.5,296.5 1298.5,296.5 1300.5,296.5C 1300.14,303.703 1296.47,306.536 1289.5,305C 1288.17,303 1288.17,301 1289.5,299C 1291.31,298.243 1292.98,297.41 1294.5,296.5 Z"/></g>
<g><path style="opacity:1" fill="#111111" d="M 1481.5,296.5 C 1483.5,296.5 1485.5,296.5 1487.5,296.5C 1487.44,301.894 1484.77,305.228 1479.5,306.5C 1475.6,305.181 1474.6,302.681 1476.5,299C 1478.31,298.243 1479.98,297.41 1481.5,296.5 Z"/></g>
<g><path style="opacity:1" fill="#747474" d="M 436.5,298.5 C 437.919,297.549 439.585,297.216 441.5,297.5C 441.5,299.167 441.5,300.833 441.5,302.5C 440.566,301.432 440.232,300.099 440.5,298.5C 439.167,298.5 437.833,298.5 436.5,298.5 Z"/></g>
<g><path style="opacity:1" fill="#d8796e" d="M 124.5,274.5 C 119.401,274.175 114.401,274.675 109.5,276C 107.678,278.821 105.511,281.321 103,283.5C 100.7,289.07 101.033,294.403 104,299.5C 106.111,303.944 109.611,306.444 114.5,307C 129.331,307.007 134.998,299.841 131.5,285.5C 131.5,284.833 131.5,284.167 131.5,283.5C 131.386,281.282 130.72,279.282 129.5,277.5C 132.091,278.254 133.924,279.921 135,282.5C 135.667,287.5 135.667,292.5 135,297.5C 132.741,299.246 131.408,301.58 131,304.5C 129.513,305.155 128.347,306.155 127.5,307.5C 123.917,309.533 120.25,311.199 116.5,312.5C 103.126,307.105 97.4594,297.105 99.5,282.5C 101.876,281.274 103.376,279.274 104,276.5C 104.333,277.167 104.667,277.833 105,278.5C 106.333,276.833 107.667,275.167 109,273.5C 109.414,273.957 109.914,274.291 110.5,274.5C 112.793,273.295 115.293,272.628 118,272.5C 120.61,272.533 122.777,273.2 124.5,274.5 Z"/></g>
<g><path style="opacity:1" fill="#e59d90" d="M 131.5,283.5 C 131.5,284.167 131.5,284.833 131.5,285.5C 133.855,297.152 129.188,303.485 117.5,304.5C 113.047,303.374 109.047,301.374 105.5,298.5C 102.23,289.224 104.897,282.39 113.5,278C 120.629,276.541 126.629,278.375 131.5,283.5 Z"/></g>
<g><path style="opacity:1" fill="#eebbaf" d="M 113.5,280.5 C 127.734,280.145 131.734,286.311 125.5,299C 118.236,303.213 112.07,302.047 107,295.5C 105.599,288.848 107.766,283.848 113.5,280.5 Z"/></g>
<g><path style="opacity:1" fill="#f6d8d0" d="M 114.5,284.5 C 116.833,284.5 119.167,284.5 121.5,284.5C 121.866,286.905 122.533,289.238 123.5,291.5C 121.529,295.961 118.196,297.461 113.5,296C 110.529,291.781 110.862,287.947 114.5,284.5 Z"/></g>
</svg>
